{"asset":{"generator":"3D Builder","version":"2.0"},"scene":0,"scenes":[{"nodes":[0]}],"nodes":[{"mesh":0,"matrix":[1,0,0,0,0,-1.1920928955078125E-7,-0.99999988079071045,0,0,0.99999988079071045,-1.1920928955078125E-7,0,-38.753704071044922,0.0022229405585676432,50.827434539794922,1]}],"meshes":[{"primitives":[{"attributes":{"POSITION":0},"mode":4,"indices":1,"material":0}]}],"materials":[{"name":"Scene_-_Root","pbrMetallicRoughness":{"baseColorFactor":[1,1,1,1],"metallicFactor":0,"roughnessFactor":0.60000002384185791},"alphaMode":"OPAQUE"}],"accessors":[{"bufferView":0,"byteOffset":0,"count":374,"componentType":5126,"type":"VEC3","min":[9.4287023544311523,37.226448059082031,-0.0022168816067278385],"max":[68.078704833984375,64.428436279296875,24.663780212402344]},{"bufferView":1,"byteOffset":0,"count":2232,"componentType":5125,"type":"SCALAR"}],"bufferViews":[{"buffer":0,"byteOffset":0,"byteLength":4488,"byteStride":12,"target":34962},{"buffer":0,"byteOffset":4488,"byteLength":8928,"target":34963}],"buffers":[{"byteLength":13416,"uri":"cloud.bin"}]}