{"asset":{"generator":"3D Builder","version":"2.0"},"scene":0,"scenes":[{"nodes":[0,1,2,3,4,9,10,17]}],"nodes":[{"mesh":0,"matrix":[1,0,0,0,0,-1.1920928955078125E-7,-0.99999988079071045,0,0,0.99999988079071045,-1.1920928955078125E-7,0,0.035840254276990891,0.0016480281483381987,-0.33508706092834473,1]},{"mesh":1,"matrix":[1,0,0,0,0,-1.1920928955078125E-7,-0.99999988079071045,0,0,0.99999988079071045,-1.1920928955078125E-7,0,0.035840254276990891,0.0016480281483381987,-0.33508706092834473,1]},{"mesh":2,"matrix":[1,0,0,0,0,-1.1920928955078125E-7,-0.99999988079071045,0,0,0.99999988079071045,-1.1920928955078125E-7,0,0.035840254276990891,0.0016480281483381987,-0.33508706092834473,1]},{"mesh":3,"matrix":[39.370079040527344,0,0,0,0,-4.6932791519793682E-6,-39.370075225830078,0,0,39.370075225830078,-4.6932791519793682E-6,0,0.035840254276990891,0.0016480281483381987,-0.33508706092834473,1]},{"children":[5,6,7,8]},{"mesh":4,"matrix":[39.370079040527344,0,0,0,0,-4.6932791519793682E-6,-39.370075225830078,0,0,39.370075225830078,-4.6932791519793682E-6,0,0.035840254276990891,0.0016480281483381987,-0.33508706092834473,1]},{"mesh":5,"matrix":[39.370079040527344,0,0,0,0,-4.6932791519793682E-6,-39.370075225830078,0,0,39.370075225830078,-4.6932791519793682E-6,0,0.035840254276990891,0.0016480281483381987,-0.33508706092834473,1]},{"mesh":6,"matrix":[39.370079040527344,0,0,0,0,-4.6932791519793682E-6,-39.370075225830078,0,0,39.370075225830078,-4.6932791519793682E-6,0,0.035840254276990891,0.0016480281483381987,-0.33508706092834473,1]},{"mesh":7,"matrix":[39.370079040527344,0,0,0,0,-4.6932791519793682E-6,-39.370075225830078,0,0,39.370075225830078,-4.6932791519793682E-6,0,0.035840254276990891,0.0016480281483381987,-0.33508706092834473,1]},{"mesh":8,"matrix":[39.370079040527344,0,0,0,0,-4.6932791519793682E-6,-39.370075225830078,0,0,39.370075225830078,-4.6932791519793682E-6,0,0.035840254276990891,0.0016480281483381987,-0.33508706092834473,1]},{"children":[11,12,13,14,15,16]},{"mesh":9,"matrix":[39.370079040527344,0,0,0,0,-4.6932791519793682E-6,-39.370075225830078,0,0,39.370075225830078,-4.6932791519793682E-6,0,0.035840254276990891,0.0016480281483381987,-0.33508706092834473,1]},{"mesh":10,"matrix":[39.370079040527344,0,0,0,0,-4.6932791519793682E-6,-39.370075225830078,0,0,39.370075225830078,-4.6932791519793682E-6,0,0.035840254276990891,0.0016480281483381987,-0.33508706092834473,1]},{"mesh":11,"matrix":[39.370079040527344,0,0,0,0,-4.6932791519793682E-6,-39.370075225830078,0,0,39.370075225830078,-4.6932791519793682E-6,0,0.035840254276990891,0.0016480281483381987,-0.33508706092834473,1]},{"mesh":12,"matrix":[39.370079040527344,0,0,0,0,-4.6932791519793682E-6,-39.370075225830078,0,0,39.370075225830078,-4.6932791519793682E-6,0,0.035840254276990891,0.0016480281483381987,-0.33508706092834473,1]},{"mesh":13,"matrix":[39.370079040527344,0,0,0,0,-4.6932791519793682E-6,-39.370075225830078,0,0,39.370075225830078,-4.6932791519793682E-6,0,0.035840254276990891,0.0016480281483381987,-0.33508706092834473,1]},{"mesh":14,"matrix":[39.370079040527344,0,0,0,0,-4.6932791519793682E-6,-39.370075225830078,0,0,39.370075225830078,-4.6932791519793682E-6,0,0.035840254276990891,0.0016480281483381987,-0.33508706092834473,1]},{"children":[18,19,20,21,22]},{"mesh":15,"matrix":[39.370079040527344,0,0,0,0,-4.6932791519793682E-6,-39.370075225830078,0,0,39.370075225830078,-4.6932791519793682E-6,0,0.035840254276990891,0.0016480281483381987,-0.33508706092834473,1]},{"mesh":16,"matrix":[39.370079040527344,0,0,0,0,-4.6932791519793682E-6,-39.370075225830078,0,0,39.370075225830078,-4.6932791519793682E-6,0,0.035840254276990891,0.0016480281483381987,-0.33508706092834473,1]},{"mesh":17,"matrix":[39.370079040527344,0,0,0,0,-4.6932791519793682E-6,-39.370075225830078,0,0,39.370075225830078,-4.6932791519793682E-6,0,0.035840254276990891,0.0016480281483381987,-0.33508706092834473,1]},{"mesh":18,"matrix":[39.370079040527344,0,0,0,0,-4.6932791519793682E-6,-39.370075225830078,0,0,39.370075225830078,-4.6932791519793682E-6,0,0.035840254276990891,0.0016480281483381987,-0.33508706092834473,1]},{"mesh":19,"matrix":[39.370079040527344,0,0,0,0,-4.6932791519793682E-6,-39.370075225830078,0,0,39.370075225830078,-4.6932791519793682E-6,0,0.035840254276990891,0.0016480281483381987,-0.33508706092834473,1]}],"meshes":[{"primitives":[{"attributes":{"POSITION":0},"mode":4,"indices":1,"material":0}]},{"primitives":[{"attributes":{"POSITION":2},"mode":4,"indices":3,"material":0}]},{"primitives":[{"attributes":{"POSITION":4},"mode":4,"indices":5,"material":0}]},{"primitives":[{"attributes":{"POSITION":6},"mode":4,"indices":7,"material":1}]},{"primitives":[{"attributes":{"POSITION":8},"mode":4,"indices":9,"material":2}]},{"primitives":[{"attributes":{"POSITION":10},"mode":4,"indices":11,"material":2}]},{"primitives":[{"attributes":{"POSITION":12},"mode":4,"indices":13,"material":2}]},{"primitives":[{"attributes":{"POSITION":14},"mode":4,"indices":15,"material":2}]},{"primitives":[{"attributes":{"POSITION":16},"mode":4,"indices":17,"material":3}]},{"primitives":[{"attributes":{"POSITION":18},"mode":4,"indices":19,"material":2}]},{"primitives":[{"attributes":{"POSITION":20},"mode":4,"indices":21,"material":2}]},{"primitives":[{"attributes":{"POSITION":22},"mode":4,"indices":23,"material":2}]},{"primitives":[{"attributes":{"POSITION":24},"mode":4,"indices":25,"material":2}]},{"primitives":[{"attributes":{"POSITION":26},"mode":4,"indices":27,"material":2}]},{"primitives":[{"attributes":{"POSITION":28},"mode":4,"indices":29,"material":2}]},{"primitives":[{"attributes":{"POSITION":30},"mode":4,"indices":31,"material":2}]},{"primitives":[{"attributes":{"POSITION":32},"mode":4,"indices":33,"material":2}]},{"primitives":[{"attributes":{"POSITION":34},"mode":4,"indices":35,"material":2}]},{"primitives":[{"attributes":{"POSITION":36},"mode":4,"indices":37,"material":2}]},{"primitives":[{"attributes":{"POSITION":38},"mode":4,"indices":39,"material":2}]}],"materials":[{"name":"bark_i_dunno_i_guess_thats_how_its_called","pbrMetallicRoughness":{"baseColorFactor":[0.28314900398254395,0.16826902329921722,0.068478196859359741,1],"metallicFactor":0,"roughnessFactor":1},"alphaMode":"OPAQUE"},{"name":"ceramique","pbrMetallicRoughness":{"baseColorFactor":[0.44457802176475525,0.078381597995758057,0.034815903753042221,1],"metallicFactor":0.395455002784729,"roughnessFactor":0.97272700071334839},"alphaMode":"OPAQUE"},{"name":"leaf","pbrMetallicRoughness":{"baseColorFactor":[0.11287812888622284,0.33638954162597656,0.16223394870758057,1],"metallicFactor":0.40000000596046448,"roughnessFactor":0.73684251308441162},"alphaMode":"OPAQUE"},{"name":"dirt","pbrMetallicRoughness":{"baseColorFactor":[0.085140503942966461,0.022733403369784355,0.0070894192904233932,1],"metallicFactor":0,"roughnessFactor":1},"alphaMode":"OPAQUE"}],"accessors":[{"bufferView":0,"byteOffset":0,"count":40,"componentType":5126,"type":"VEC3","min":[-0.083060242235660553,-0.79751414060592651,1.2838536500930786],"max":[0.19223152101039886,0.083060063421726227,4.92852783203125]},{"bufferView":1,"byteOffset":0,"count":228,"componentType":5125,"type":"SCALAR"},{"bufferView":2,"byteOffset":0,"count":40,"componentType":5126,"type":"VEC3","min":[-0.62589114904403687,0.034225136041641235,1.2817448377609253],"max":[0.046456683427095413,0.26794472336769104,4.4154024124145508]},{"bufferView":3,"byteOffset":0,"count":228,"componentType":5125,"type":"SCALAR"},{"bufferView":4,"byteOffset":0,"count":40,"componentType":5126,"type":"VEC3","min":[-0.018971744924783707,0.015343222767114639,1.4688354730606079],"max":[0.382196307182312,0.10659937560558319,2.9894006252288818]},{"bufferView":5,"byteOffset":0,"count":228,"componentType":5125,"type":"SCALAR"},{"bufferView":6,"byteOffset":0,"count":99,"componentType":5126,"type":"VEC3","min":[-0.023280154913663864,-0.023280156776309013,-4.1860937926685438E-5],"max":[0.023268703371286392,0.023268703371286392,0.04800671711564064]},{"bufferView":7,"byteOffset":0,"count":582,"componentType":5125,"type":"SCALAR"},{"bufferView":8,"byteOffset":0,"count":40,"componentType":5126,"type":"VEC3","min":[-0.013881540857255459,0.0027060636784881353,0.071404218673706055],"max":[0.012304396368563175,0.055872716009616852,0.0815272182226181]},{"bufferView":9,"byteOffset":0,"count":288,"componentType":5125,"type":"SCALAR"},{"bufferView":10,"byteOffset":0,"count":40,"componentType":5126,"type":"VEC3","min":[0.0092925941571593285,0.0027060636784881353,0.076089240610599518],"max":[0.048027701675891876,0.042612425982952118,0.084748171269893646]},{"bufferView":11,"byteOffset":0,"count":288,"componentType":5125,"type":"SCALAR"},{"bufferView":12,"byteOffset":0,"count":40,"componentType":5126,"type":"VEC3","min":[0.0092925941571593285,-0.018209220841526985,0.071404218673706055],"max":[0.063546843826770782,0.0065544783137738705,0.0815272182226181]},{"bufferView":13,"byteOffset":0,"count":288,"componentType":5125,"type":"SCALAR"},{"bufferView":14,"byteOffset":0,"count":40,"componentType":5126,"type":"VEC3","min":[0.0065317777916789055,-0.04866187646985054,0.075461782515048981],"max":[0.034139953553676605,0.0027060636784881353,0.086212240159511566]},{"bufferView":15,"byteOffset":0,"count":288,"componentType":5125,"type":"SCALAR"},{"bufferView":16,"byteOffset":0,"count":144,"componentType":5126,"type":"VEC3","min":[-0.018985122442245483,-0.018985122442245483,0.039009511470794678],"max":[0.018969936296343803,0.018969936296343803,0.0413636676967144]},{"bufferView":17,"byteOffset":0,"count":984,"componentType":5125,"type":"SCALAR"},{"bufferView":18,"byteOffset":0,"count":40,"componentType":5126,"type":"VEC3","min":[0.0015811655903235078,-0.03695281594991684,0.121098093688488],"max":[0.06431916356086731,-0.01114641223102808,0.13313768804073334]},{"bufferView":19,"byteOffset":0,"count":288,"componentType":5125,"type":"SCALAR"},{"bufferView":20,"byteOffset":0,"count":40,"componentType":5126,"type":"VEC3","min":[0.0015811655903235078,-0.015820013359189034,0.12475569546222687],"max":[0.044049970805644989,0.03579278290271759,0.13496649265289307]},{"bufferView":21,"byteOffset":0,"count":288,"componentType":5125,"type":"SCALAR"},{"bufferView":22,"byteOffset":0,"count":40,"componentType":5126,"type":"VEC3","min":[-0.014776435680687428,-0.015820013359189034,0.11926929652690887],"max":[0.0094551639631390572,0.050270784646272659,0.1311056911945343]},{"bufferView":23,"byteOffset":0,"count":288,"componentType":5125,"type":"SCALAR"},{"bufferView":24,"byteOffset":0,"count":40,"componentType":5126,"type":"VEC3","min":[-0.06410323828458786,-0.022779617458581924,0.11926929652690887],"max":[0.0015811655903235078,0.0016043836949393153,0.1311056911945343]},{"bufferView":25,"byteOffset":0,"count":288,"componentType":5125,"type":"SCALAR"},{"bufferView":26,"byteOffset":0,"count":40,"componentType":5126,"type":"VEC3","min":[-0.033877238631248474,-0.072157219052314758,0.11926929652690887],"max":[0.0017843629466369748,-0.015820013359189034,0.1311056911945343]},{"bufferView":27,"byteOffset":0,"count":288,"componentType":5125,"type":"SCALAR"},{"bufferView":28,"byteOffset":0,"count":40,"componentType":5126,"type":"VEC3","min":[-9.5234012405853719E-5,-0.07398601621389389,0.12475569546222687],"max":[0.0340423621237278,-0.015820013359189034,0.13831929862499237]},{"bufferView":29,"byteOffset":0,"count":288,"componentType":5125,"type":"SCALAR"},{"bufferView":30,"byteOffset":0,"count":40,"componentType":5126,"type":"VEC3","min":[-0.05564473569393158,0.0063141160644590855,0.0947641059756279],"max":[-0.015263130888342857,0.034642111510038376,0.11254012584686279]},{"bufferView":31,"byteOffset":0,"count":288,"componentType":5125,"type":"SCALAR"},{"bufferView":32,"byteOffset":0,"count":40,"componentType":5126,"type":"VEC3","min":[-0.06615612655878067,0.00071344967000186443,0.10775114595890045],"max":[-0.015263130888342857,0.019666420295834541,0.11696384102106094]},{"bufferView":33,"byteOffset":0,"count":288,"componentType":5125,"type":"SCALAR"},{"bufferView":34,"byteOffset":0,"count":40,"componentType":5126,"type":"VEC3","min":[-0.029711222276091576,0.0063141160644590855,0.10775114595890045],"max":[-0.010149477049708366,0.056963600218296051,0.11696384102106094]},{"bufferView":35,"byteOffset":0,"count":288,"componentType":5125,"type":"SCALAR"},{"bufferView":36,"byteOffset":0,"count":40,"componentType":5126,"type":"VEC3","min":[-0.015263130888342857,0.0015657232142984867,0.10775114595890045],"max":[0.035264603793621063,0.021939154714345932,0.11696384102106094]},{"bufferView":37,"byteOffset":0,"count":288,"componentType":5125,"type":"SCALAR"},{"bufferView":38,"byteOffset":0,"count":40,"componentType":5126,"type":"VEC3","min":[-0.031537529081106186,-0.044497717171907425,0.11071381717920303],"max":[-0.011894616298377514,0.0063141160644590855,0.12057586014270782]},{"bufferView":39,"byteOffset":0,"count":288,"componentType":5125,"type":"SCALAR"}],"bufferViews":[{"buffer":0,"byteOffset":0,"byteLength":480,"byteStride":12,"target":34962},{"buffer":0,"byteOffset":480,"byteLength":912,"target":34963},{"buffer":0,"byteOffset":1392,"byteLength":480,"byteStride":12,"target":34962},{"buffer":0,"byteOffset":1872,"byteLength":912,"target":34963},{"buffer":0,"byteOffset":2784,"byteLength":480,"byteStride":12,"target":34962},{"buffer":0,"byteOffset":3264,"byteLength":912,"target":34963},{"buffer":0,"byteOffset":4176,"byteLength":1188,"byteStride":12,"target":34962},{"buffer":0,"byteOffset":5364,"byteLength":2328,"target":34963},{"buffer":0,"byteOffset":7692,"byteLength":480,"byteStride":12,"target":34962},{"buffer":0,"byteOffset":8172,"byteLength":1152,"target":34963},{"buffer":0,"byteOffset":9324,"byteLength":480,"byteStride":12,"target":34962},{"buffer":0,"byteOffset":9804,"byteLength":1152,"target":34963},{"buffer":0,"byteOffset":10956,"byteLength":480,"byteStride":12,"target":34962},{"buffer":0,"byteOffset":11436,"byteLength":1152,"target":34963},{"buffer":0,"byteOffset":12588,"byteLength":480,"byteStride":12,"target":34962},{"buffer":0,"byteOffset":13068,"byteLength":1152,"target":34963},{"buffer":0,"byteOffset":14220,"byteLength":1728,"byteStride":12,"target":34962},{"buffer":0,"byteOffset":15948,"byteLength":3936,"target":34963},{"buffer":0,"byteOffset":19884,"byteLength":480,"byteStride":12,"target":34962},{"buffer":0,"byteOffset":20364,"byteLength":1152,"target":34963},{"buffer":0,"byteOffset":21516,"byteLength":480,"byteStride":12,"target":34962},{"buffer":0,"byteOffset":21996,"byteLength":1152,"target":34963},{"buffer":0,"byteOffset":23148,"byteLength":480,"byteStride":12,"target":34962},{"buffer":0,"byteOffset":23628,"byteLength":1152,"target":34963},{"buffer":0,"byteOffset":24780,"byteLength":480,"byteStride":12,"target":34962},{"buffer":0,"byteOffset":25260,"byteLength":1152,"target":34963},{"buffer":0,"byteOffset":26412,"byteLength":480,"byteStride":12,"target":34962},{"buffer":0,"byteOffset":26892,"byteLength":1152,"target":34963},{"buffer":0,"byteOffset":28044,"byteLength":480,"byteStride":12,"target":34962},{"buffer":0,"byteOffset":28524,"byteLength":1152,"target":34963},{"buffer":0,"byteOffset":29676,"byteLength":480,"byteStride":12,"target":34962},{"buffer":0,"byteOffset":30156,"byteLength":1152,"target":34963},{"buffer":0,"byteOffset":31308,"byteLength":480,"byteStride":12,"target":34962},{"buffer":0,"byteOffset":31788,"byteLength":1152,"target":34963},{"buffer":0,"byteOffset":32940,"byteLength":480,"byteStride":12,"target":34962},{"buffer":0,"byteOffset":33420,"byteLength":1152,"target":34963},{"buffer":0,"byteOffset":34572,"byteLength":480,"byteStride":12,"target":34962},{"buffer":0,"byteOffset":35052,"byteLength":1152,"target":34963},{"buffer":0,"byteOffset":36204,"byteLength":480,"byteStride":12,"target":34962},{"buffer":0,"byteOffset":36684,"byteLength":1152,"target":34963}],"buffers":[{"byteLength":37836,"uri":"plant.bin"}]}